<svg width="125" height="125" viewBox="0 0 125 125" fill="none" xmlns="http://www.w3.org/2000/svg">
<circle cx="62.5" cy="62.5" r="62" fill="black" stroke="white"/>
<g clip-path="url(#clip0_177_41)">
<path d="M99.5699 62.5C99.5699 72.332 95.6642 81.7613 88.7119 88.7136C81.7596 95.6659 72.3303 99.5716 62.4983 99.5716C52.6663 99.5716 43.237 95.6659 36.2847 88.7136C29.3324 81.7613 25.4267 72.332 25.4267 62.5H28.3248C28.2959 70.8116 31.2868 78.8509 36.7411 85.1226C42.1953 91.3944 49.7418 95.4717 57.9771 96.5964C66.2123 97.7211 74.5757 95.8166 81.512 91.237C88.4482 86.6575 93.4852 79.7146 95.6861 71.6997C97.887 63.6847 97.1021 55.1431 93.4773 47.6635C89.8525 40.1839 83.6345 34.2753 75.9798 31.0366C68.325 27.7979 59.7546 27.4496 51.8622 30.0564C43.9699 32.6631 37.293 38.0476 33.0731 45.2083H48.6667V48.6667H27.9167V27.9167H31.375V42.4417C35.7037 35.7083 42.0971 30.5585 49.598 27.7634C57.0988 24.9683 65.3033 24.6784 72.9827 26.9372C80.6621 29.196 87.4031 33.8818 92.1961 40.2929C96.9892 46.704 99.5762 54.4953 99.5699 62.5Z" fill="white"/>
</g>
<rect x="21.5" y="21.5" width="82" height="82" stroke="black"/>
<defs>
<clipPath id="clip0_177_41">
<rect x="21" y="21" width="83" height="83" fill="white"/>
</clipPath>
</defs>
</svg>
